{
    "accessors" : [
        {
            "bufferView" : 0, 
            "componentType" : 5123, 
            "count" : 45120, 
            "max" : [
                45119
            ], 
            "min" : [
                0
            ], 
            "type" : "SCALAR"
        }, 
        {
            "bufferView" : 1, 
            "componentType" : 5126, 
            "count" : 45120, 
            "max" : [
                3.9294965267181396, 
                4.494297981262207, 
                0.7472227215766907
            ], 
            "min" : [
                -6.01412296295166, 
                -4.450144290924072, 
                -19.35422706604004
            ], 
            "type" : "VEC3"
        }, 
        {
            "bufferView" : 2, 
            "componentType" : 5126, 
            "count" : 45120, 
            "max" : [
                0.9999355673789978, 
                0.9999438524246216, 
                1.0
            ], 
            "min" : [
                -0.9999855756759644, 
                -0.9990023970603943, 
                -1.0
            ], 
            "type" : "VEC3"
        }, 
        {
            "bufferView" : 3, 
            "componentType" : 5126, 
            "count" : 45120, 
            "max" : [
                0.9993120431900024, 
                0.9999479651451111, 
                0.9833874106407166, 
                1.0
            ], 
            "min" : [
                -0.9958463907241821, 
                -0.9999479651451111, 
                -0.9891046285629272, 
                -1.0
            ], 
            "type" : "VEC4"
        }, 
        {
            "bufferView" : 4, 
            "componentType" : 5126, 
            "count" : 45120, 
            "max" : [
                0.9769222140312195, 
                0.9661127030849457
            ], 
            "min" : [
                0.016895582899451256, 
                0.008652269840240479
            ], 
            "type" : "VEC2"
        }
    ], 
    "asset" : {
        "generator" : "Soft8Soft Verge3D for 3ds Max plug-in", 
        "version" : "2.0"
    }, 
    "bufferViews" : [
        {
            "buffer" : 0, 
            "byteLength" : 90240, 
            "byteOffset" : 0, 
            "target" : 34963
        }, 
        {
            "buffer" : 0, 
            "byteLength" : 541440, 
            "byteOffset" : 90240, 
            "target" : 34962
        }, 
        {
            "buffer" : 0, 
            "byteLength" : 541440, 
            "byteOffset" : 631680, 
            "target" : 34962
        }, 
        {
            "buffer" : 0, 
            "byteLength" : 721920, 
            "byteOffset" : 1173120, 
            "target" : 34962
        }, 
        {
            "buffer" : 0, 
            "byteLength" : 360960, 
            "byteOffset" : 1895040, 
            "target" : 34962
        }
    ], 
    "buffers" : [
        {
            "byteLength" : 2256000, 
            "uri" : "my_awesome_app.bin"
        }
    ], 
    "cameras" : [
        {
            "extensions" : {
                "S8S_v3d_camera_data" : {
                    "controls" : "ORBIT", 
                    "enablePan" : true, 
                    "moveSpeed" : 1.0, 
                    "orbitMaxDistance" : 5000.0, 
                    "orbitMaxPolarAngle" : 3.141592653589793, 
                    "orbitMinDistance" : 0.0, 
                    "orbitMinPolarAngle" : 0.0, 
                    "orbitTarget" : [
                        0.1911144107580185, 
                        2.651024580001831, 
                        1.6422405242919922
                    ], 
                    "rotateSpeed" : 1.0, 
                    "viewportFitInitialAspect" : 1.3333333730697632, 
                    "viewportFitType" : "VERTICAL"
                }
            }, 
            "name" : "Camera001", 
            "perspective" : {
                "aspectRatio" : 1.3333333730697632, 
                "yfov" : 0.6024156988215424, 
                "zfar" : 1000.0, 
                "znear" : 1.0
            }, 
            "type" : "perspective"
        }
    ], 
    "extensions" : {
        "S8S_v3d_data" : {
            "lights" : [
                {
                    "color" : [
                        1, 
                        1, 
                        1
                    ], 
                    "intensity" : 1, 
                    "name" : "__DEFAULT__", 
                    "profile" : "max", 
                    "type" : "point"
                }, 
                {
                    "color" : [
                        0.0, 
                        0.0, 
                        0.0
                    ], 
                    "intensity" : 1, 
                    "name" : "__AMBIENT__", 
                    "profile" : "max", 
                    "type" : "ambient"
                }
            ]
        }
    }, 
    "extensionsUsed" : [
        "S8S_v3d_texture_data", 
        "S8S_v3d_material_data", 
        "S8S_v3d_data", 
        "S8S_v3d_node_data", 
        "S8S_v3d_scene_data"
    ], 
    "images" : [
        {
            "uri" : "texture.jpg"
        }, 
        {
            "uri" : "bw.jpg"
        }
    ], 
    "materials" : [
        {
            "alphaMode" : "BLEND", 
            "doubleSided" : false, 
            "emissiveFactor" : [
                0, 
                0, 
                0
            ], 
            "extensions" : {
                "S8S_v3d_material_data" : {
                    "depthWrite" : true, 
                    "nodeGraph" : {
                        "edges" : [
                            {
                                "fromNode" : 1, 
                                "fromOutput" : 0, 
                                "toInput" : 0, 
                                "toNode" : 0
                            }, 
                            {
                                "fromNode" : 1, 
                                "fromOutput" : 1, 
                                "toInput" : 1, 
                                "toNode" : 0
                            }, 
                            {
                                "fromNode" : 2, 
                                "fromOutput" : 0, 
                                "toInput" : 1, 
                                "toNode" : 1
                            }, 
                            {
                                "fromNode" : 3, 
                                "fromOutput" : 0, 
                                "toInput" : 6, 
                                "toNode" : 1
                            }
                        ], 
                        "nodes" : [
                            {
                                "inputs" : [
                                    [
                                        1, 
                                        1, 
                                        1, 
                                        1
                                    ], 
                                    1
                                ], 
                                "is_active_output" : true, 
                                "name" : "MaxOutput", 
                                "outputs" : [], 
                                "type" : "OUTPUT"
                            }, 
                            {
                                "IOR" : 1.5, 
                                "inputFactors" : [
                                    0, 
                                    1.0, 
                                    0, 
                                    0, 
                                    0, 
                                    0, 
                                    1.0, 
                                    0, 
                                    0, 
                                    0, 
                                    0, 
                                    0
                                ], 
                                "inputs" : [
                                    [
                                        0.5882353186607361, 
                                        0.5882353186607361, 
                                        0.5882353186607361, 
                                        1.0
                                    ], 
                                    [
                                        0.5882353186607361, 
                                        0.5882353186607361, 
                                        0.5882353186607361, 
                                        1.0
                                    ], 
                                    [
                                        0.8999999761581421, 
                                        0.8999999761581421, 
                                        0.8999999761581421, 
                                        1.0
                                    ], 
                                    0.09999999403953552, 
                                    0.0, 
                                    [
                                        0.0, 
                                        0.0, 
                                        0.0, 
                                        1.0
                                    ], 
                                    1.0, 
                                    [
                                        0, 
                                        0, 
                                        0, 
                                        0
                                    ], 
                                    [
                                        0, 
                                        0, 
                                        0
                                    ], 
                                    [
                                        0, 
                                        0, 
                                        0, 
                                        0
                                    ], 
                                    [
                                        0, 
                                        0, 
                                        0, 
                                        0
                                    ], 
                                    0
                                ], 
                                "is_active_output" : false, 
                                "name" : "palm", 
                                "outputs" : [
                                    [
                                        0, 
                                        0, 
                                        0, 
                                        0
                                    ], 
                                    0
                                ], 
                                "selfIllumColorOn" : false, 
                                "type" : "MATERIAL_MAX"
                            }, 
                            {
                                "alphaAsMono" : false, 
                                "alphaAsRGB" : false, 
                                "alphaSource" : "NONE", 
                                "inputs" : [], 
                                "is_active_output" : false, 
                                "name" : "Map #4", 
                                "outputs" : [
                                    [
                                        0, 
                                        0, 
                                        0, 
                                        0
                                    ]
                                ], 
                                "texture" : 0, 
                                "type" : "BITMAP_MAX", 
                                "uvIndex" : 0, 
                                "uvTransform" : [
                                    1.0, 
                                    0.0, 
                                    0, 
                                    0.0, 
                                    1.0, 
                                    0, 
                                    0.0, 
                                    -0.0, 
                                    1
                                ]
                            }, 
                            {
                                "alphaAsMono" : false, 
                                "alphaAsRGB" : false, 
                                "alphaSource" : "NONE", 
                                "inputs" : [], 
                                "is_active_output" : false, 
                                "name" : "Map #5", 
                                "outputs" : [
                                    [
                                        0, 
                                        0, 
                                        0, 
                                        0
                                    ]
                                ], 
                                "texture" : 1, 
                                "type" : "BITMAP_MAX", 
                                "uvIndex" : 0, 
                                "uvTransform" : [
                                    1.0, 
                                    0.0, 
                                    0, 
                                    0.0, 
                                    1.0, 
                                    0, 
                                    0.0, 
                                    -0.0, 
                                    1
                                ]
                            }
                        ]
                    }, 
                    "profile" : "max", 
                    "useShadeless" : false
                }
            }, 
            "name" : "palm"
        }
    ], 
    "meshes" : [
        {
            "name" : "palme", 
            "primitives" : [
                {
                    "attributes" : {
                        "NORMAL" : 2, 
                        "POSITION" : 1, 
                        "TANGENT" : 3, 
                        "TEXCOORD_0" : 4
                    }, 
                    "indices" : 0, 
                    "material" : 0, 
                    "mode" : 4
                }
            ]
        }
    ], 
    "nodes" : [
        {
            "camera" : 0, 
            "extensions" : {
                "S8S_v3d_node_data" : {
                    "hidden" : false
                }
            }, 
            "name" : "Camera001", 
            "rotation" : [
                0.08900515735149384, 
                0.8938868045806885, 
                0.2046261876821518, 
                -0.38880911469459534
            ], 
            "scale" : [
                0.9999999403953552, 
                1.0, 
                0.9999999403953552
            ], 
            "translation" : [
                -5.4857964515686035, 
                6.400461196899414, 
                -3.6488473415374756
            ]
        }, 
        {
            "extensions" : {
                "S8S_v3d_node_data" : {
                    "hidden" : false
                }
            }, 
            "name" : "Camera001.Target", 
            "scale" : [
                1.0, 
                1.0, 
                1.0
            ], 
            "translation" : [
                0.1911144107580185, 
                2.651024580001831, 
                1.6422405242919922
            ]
        }, 
        {
            "extensions" : {
                "S8S_v3d_node_data" : {
                    "hidden" : false, 
                    "useCastShadows" : true, 
                    "useShadows" : true
                }
            }, 
            "mesh" : 0, 
            "name" : "palme", 
            "rotation" : [
                0.7071068286895752, 
                0.0, 
                -0.0, 
                0.7071067094802856
            ], 
            "scale" : [
                1.0, 
                1.0, 
                1.0
            ], 
            "translation" : [
                2.4957566261291504, 
                -0.8320376873016357, 
                2.2953076362609863
            ]
        }, 
        {
            "extensions" : {
                "S8S_v3d_node_data" : {
                    "light" : 0
                }
            }, 
            "name" : "__DEFAULT_LIGHT__", 
            "rotation" : [
                -0.7071068286895752, 
                0.0, 
                0.0, 
                0.7071067690849304
            ], 
            "scale" : [
                1.0, 
                1.0, 
                1.0
            ], 
            "translation" : [
                -5.4857964515686035, 
                6.400461196899414, 
                -3.6488473415374756
            ]
        }
    ], 
    "samplers" : [
        {}
    ], 
    "scene" : 0, 
    "scenes" : [
        {
            "extensions" : {
                "S8S_v3d_scene_data" : {
                    "ambientColor" : [
                        0, 
                        0, 
                        0
                    ], 
                    "horizonColor" : [
                        0.0784313753247261, 
                        0.0784313753247261, 
                        0.0784313753247261
                    ], 
                    "light" : 1, 
                    "postprocessing" : [], 
                    "shadowMap" : {
                        "renderReverseSided" : false, 
                        "renderSingleSided" : true, 
                        "type" : "PCFSOFT"
                    }, 
                    "worldEquirecTextureInvertU" : true, 
                    "worldEquirecTextureOffsetU" : 0.25
                }
            }, 
            "extras" : {
                "animFrameRate" : 30
            }, 
            "name" : "Scene", 
            "nodes" : [
                0, 
                1, 
                2, 
                3
            ]
        }
    ], 
    "textures" : [
        {
            "extensions" : {
                "S8S_v3d_texture_data" : {
                    "colorSpace" : "srgb", 
                    "isCubeTexture" : false
                }
            }, 
            "name" : "Map #4", 
            "sampler" : 0, 
            "source" : 0
        }, 
        {
            "extensions" : {
                "S8S_v3d_texture_data" : {
                    "colorSpace" : "srgb", 
                    "isCubeTexture" : false
                }
            }, 
            "name" : "Map #5", 
            "sampler" : 0, 
            "source" : 1
        }
    ]
}
